<svg version="1.1" id="Layer_1" xmlns="http://www.w3.org/2000/svg" xmlns:xlink="http://www.w3.org/1999/xlink" x="0px" y="0px"
	 width="100%" viewBox="0 0 1280 406" enable-background="new 0 0 1280 406" xml:space="preserve">
<path fill="#FEFFFF" opacity="1.000000" stroke="none" 
	d="
M825.000000,407.000000 
	C550.000061,407.000000 275.500061,407.000000 1.000074,407.000000 
	C1.000049,271.666718 1.000049,136.333435 1.000025,1.000110 
	C427.666595,1.000073 854.333191,1.000073 1280.999756,1.000037 
	C1280.999878,136.333221 1280.999878,271.666443 1281.000000,406.999817 
	C1129.166626,407.000000 977.333313,407.000000 825.000000,407.000000 
M362.106903,218.960480 
	C356.530518,218.960480 350.954132,218.960480 345.339874,218.960480 
	C345.339874,248.219238 345.339874,276.856323 345.339874,306.320618 
	C352.114014,305.862366 358.541565,305.427551 365.270355,304.513824 
	C365.219482,304.332214 365.168640,304.150635 365.360046,303.062134 
	C365.375793,294.111786 365.432892,285.161316 365.398376,276.211151 
	C365.332611,259.150085 365.214508,242.089218 365.290619,224.497818 
	C365.230316,224.321945 365.169983,224.146072 365.354340,223.251282 
	C365.274628,222.506348 365.194916,221.761398 365.283569,220.259674 
	C364.529205,219.904190 363.774841,219.548706 362.106903,218.960480 
M917.569946,297.570435 
	C917.636414,298.693054 917.702881,299.815674 917.478088,301.698486 
	C917.933533,302.423798 918.375000,303.769897 918.846619,303.780518 
	C925.098938,303.921234 931.355530,303.874390 937.887756,303.874390 
	C937.887756,289.735016 937.830811,276.276154 937.901245,262.817963 
	C938.004517,243.087616 946.913513,234.531601 966.548096,235.152176 
	C966.842224,235.161484 967.143555,234.942688 967.539185,234.793549 
	C967.539185,228.601013 967.539185,222.388077 967.539185,215.960342 
	C955.666565,215.905243 945.313354,218.729340 936.762573,228.962982 
	C936.762573,224.085068 936.762573,220.674805 936.762573,217.099152 
	C930.549866,217.099152 924.763733,217.099152 918.317261,217.044296 
	C918.139526,217.387543 917.961731,217.730804 917.497986,218.965408 
	C917.479553,233.963943 917.413818,248.962601 917.458374,263.960938 
	C917.491028,274.945374 917.668457,285.929413 917.569946,297.570435 
M412.183563,186.097046 
	C405.740417,185.831696 399.297607,185.554108 392.852112,185.371887 
	C392.692261,185.367371 392.502594,186.417999 392.093018,187.890198 
	C392.093018,227.111191 392.093018,266.332184 392.093018,305.630249 
	C399.209259,305.630249 405.612183,305.630249 412.462006,305.630249 
	C412.462006,299.037903 412.407471,292.742645 412.503723,286.449677 
	C412.525391,285.030579 412.598999,283.151733 413.457062,282.283051 
	C417.960968,277.723480 422.724579,273.420441 427.624329,268.815582 
	C436.955292,280.349457 445.933075,291.483215 454.971313,302.567719 
	C455.978546,303.802979 457.295929,305.650909 458.526581,305.697205 
	C466.203522,305.986053 473.896698,305.842926 482.523590,305.842926 
	C468.879944,288.493988 455.955505,272.059631 441.707062,253.941666 
	C453.829224,242.330109 465.846863,230.818634 478.296753,218.893173 
	C471.339935,218.893173 465.021729,218.650757 458.738892,219.016541 
	C456.339142,219.156250 453.546783,220.138367 451.749664,221.685089 
	C445.193024,227.328156 438.993256,233.384888 432.635498,239.260269 
	C426.205322,245.202560 419.747253,251.114655 412.436188,257.835297 
	C412.436188,255.128693 412.442688,253.537430 412.435272,251.946228 
	C412.338959,231.308716 412.240692,210.671188 412.318939,189.497482 
	C412.257690,189.319595 412.196472,189.141724 412.371124,188.330933 
	C412.294708,187.894073 412.218292,187.457230 412.183563,186.097046 
M661.645508,226.503189 
	C661.716248,226.682175 661.787048,226.861160 661.527954,227.657303 
	C660.495117,227.232788 659.442139,226.851166 658.432800,226.376633 
	C653.076843,223.858490 647.973694,220.116104 642.343079,218.981949 
	C609.997375,212.466736 584.559814,238.261734 590.329163,271.227936 
	C593.954834,291.945251 609.021423,305.530609 630.023010,306.941437 
	C642.101379,307.752808 652.973877,304.819092 662.471924,295.192749 
	C662.471924,299.408630 662.471924,302.482880 662.471924,305.606567 
	C669.191406,305.606567 675.421814,305.606567 681.633911,305.606567 
	C681.633911,265.284302 681.633911,225.274841 681.633911,185.351425 
	C674.810364,185.351425 668.391357,185.351425 661.843994,185.351425 
	C661.843994,199.070023 661.843994,212.515488 661.645508,226.503189 
M194.107407,148.391693 
	C198.715561,149.445007 200.376450,146.329071 200.652161,142.876801 
	C201.219193,135.776443 201.727417,128.583694 201.212936,121.505035 
	C200.419785,110.591896 197.993927,99.766853 197.643967,88.860054 
	C197.233627,76.070999 203.145004,69.304344 215.374908,65.913513 
	C228.702148,62.218430 240.349792,69.276115 243.247360,82.701164 
	C244.402588,88.053520 245.447693,93.468643 247.151596,98.655228 
	C250.416611,108.593674 259.304382,114.545944 270.138885,107.124832 
	C276.161224,102.999832 282.469391,99.255417 288.850952,95.702675 
	C294.375336,92.627129 299.869263,92.116447 305.601562,96.166130 
	C315.933258,103.465111 322.821686,123.805336 307.910828,135.912308 
	C296.678436,145.032532 284.105286,152.160095 269.905945,154.899582 
	C254.597488,157.853043 238.870316,158.605667 223.524567,161.407120 
	C213.810104,163.180542 204.364822,166.674011 194.988342,169.940170 
	C190.870132,171.374695 188.489502,175.729446 189.623703,179.627609 
	C190.454346,182.482437 194.072418,184.770233 196.864975,186.710953 
	C198.340042,187.736084 200.700180,187.713837 202.671219,187.765778 
	C240.930511,188.773926 277.439484,180.981384 311.872620,164.517792 
	C332.356079,154.723984 345.200073,138.625671 347.397614,115.143860 
	C349.858582,88.847115 323.943604,64.382248 301.308685,67.139763 
	C291.915619,68.284081 283.130524,70.828934 275.146698,76.010178 
	C269.307129,79.799881 267.056732,78.686295 266.713043,71.841171 
	C265.934540,56.334846 256.612732,46.441647 244.160995,39.444973 
	C234.558060,34.049049 223.920593,34.429722 213.101166,36.762287 
	C190.635620,41.605633 179.185440,55.704350 175.031525,76.373634 
	C171.341751,94.733414 174.217346,112.541557 179.413177,130.052933 
	C181.653000,137.601730 185.952744,144.279266 194.107407,148.391693 
M298.689575,257.600555 
	C298.689575,273.559204 298.689575,289.517853 298.689575,305.546387 
	C305.736420,305.546387 312.293182,305.546387 319.155182,305.546387 
	C319.155182,289.362000 319.175537,273.552795 319.137268,257.743713 
	C319.130005,254.748856 319.065552,251.734619 318.728088,248.763336 
	C317.100616,234.434830 310.395355,223.735229 295.969574,219.692841 
	C282.506287,215.920197 269.529114,217.608170 257.816162,225.753342 
	C255.286057,227.512772 253.079193,229.737045 250.632004,231.825226 
	C243.763870,222.017487 234.130722,218.363815 222.903900,217.962631 
	C211.705154,217.562454 201.834885,221.004517 192.957214,229.453369 
	C192.957214,225.274323 192.957214,222.327423 192.957214,219.232132 
	C186.436249,219.232132 180.231171,219.232132 174.050629,219.232132 
	C174.050629,248.269302 174.050629,276.964600 174.050629,305.587158 
	C180.885757,305.587158 187.302597,305.587158 194.098801,305.587158 
	C194.098801,290.954590 193.995651,276.653900 194.168152,262.356567 
	C194.213791,258.574097 194.679779,254.682220 195.693970,251.047394 
	C198.727570,240.175049 208.117722,234.533737 220.025330,236.026138 
	C229.582794,237.223984 235.304886,244.114410 235.982422,255.296677 
	C236.103180,257.289978 236.117828,259.291901 236.119431,261.289886 
	C236.129913,274.450500 236.115311,287.611115 236.132980,300.771729 
	C236.135117,302.370911 236.281296,303.969940 236.356186,305.477539 
	C243.402908,305.477539 249.943848,305.477539 256.660858,305.477539 
	C256.660858,303.383453 256.659576,301.729523 256.661041,300.075592 
	C256.672913,286.748444 256.544067,273.419220 256.737946,260.094696 
	C256.925354,247.215057 263.519409,238.312744 273.925079,236.303375 
	C288.509277,233.487091 297.008118,240.499039 298.689575,257.600555 
M535.575867,289.649902 
	C520.046326,288.143005 510.428314,280.606628 509.526398,268.858185 
	C531.984741,268.858185 554.415161,268.858185 576.782654,268.858185 
	C581.301880,236.504288 556.161011,212.850861 523.817200,218.868851 
	C506.990082,221.999756 495.349701,231.893707 490.499908,248.353104 
	C485.557861,265.125427 488.155792,280.894836 500.832703,293.744507 
	C515.778198,308.893738 545.721008,311.694183 563.497131,299.952576 
	C566.347412,298.069855 568.807617,295.596588 571.773865,293.124939 
	C567.823792,288.556854 564.301331,284.483307 560.648193,280.258667 
	C553.547058,286.949005 545.587219,289.787811 535.575867,289.649902 
M1013.507080,267.008362 
	C1031.297241,267.008362 1049.087524,267.008362 1067.187622,267.008362 
	C1067.353516,264.954346 1067.575684,263.321320 1067.604126,261.684937 
	C1068.103638,232.900497 1047.515869,213.724411 1018.696228,216.107025 
	C998.329468,217.790787 982.905945,231.770111 979.246643,251.862457 
	C975.543762,272.194916 984.681580,291.506866 1002.579224,299.865631 
	C1017.496521,306.832520 1032.956177,307.131989 1048.133667,300.773224 
	C1053.155273,298.669403 1057.437134,294.800171 1062.411499,291.503265 
	C1057.962891,286.453125 1054.394043,282.401733 1050.907471,278.443756 
	C1038.838013,288.404602 1026.075806,290.522644 1012.293396,284.265961 
	C1005.134827,281.016235 1000.852417,275.293152 999.203125,267.008423 
	C1004.198364,267.008423 1008.354004,267.008423 1013.507080,267.008362 
M847.639038,215.998337 
	C835.893921,216.816803 824.768982,219.443970 814.951538,226.752686 
	C817.766052,231.906418 820.351990,236.641617 822.944885,241.389587 
	C833.977112,234.104126 845.337219,231.228409 857.711731,233.986115 
	C866.844604,236.021423 871.408142,242.828735 870.587463,252.979156 
	C863.529114,252.979156 856.397034,252.704147 849.296997,253.062759 
	C843.181885,253.371628 836.932068,253.738708 831.044800,255.255692 
	C819.583130,258.209015 813.031006,266.470245 812.475098,277.220795 
	C811.885681,288.619049 817.581482,297.984344 828.805054,301.997528 
	C844.073730,307.457062 858.747009,306.738434 872.059753,294.722351 
	C872.059753,298.022858 872.059753,300.725220 872.059753,303.599182 
	C878.763000,303.599182 884.972412,303.599182 891.003662,303.599182 
	C891.003662,283.847443 891.726379,264.375519 890.765137,244.987091 
	C890.052124,230.606339 881.007385,221.117844 866.898315,217.780914 
	C860.987732,216.382996 854.712158,216.528259 847.639038,215.998337 
M744.707581,219.198334 
	C723.934143,228.697754 713.859863,246.648880 717.412598,267.834839 
	C720.856812,288.373749 736.242798,302.495453 757.633911,304.751099 
	C777.415833,306.837067 795.171326,298.541321 800.743591,284.326782 
	C795.795471,281.446136 790.798279,278.536926 785.874878,275.670685 
	C772.917114,289.389343 756.516235,291.241425 745.298096,280.496338 
	C735.054321,270.684662 734.794067,251.236099 744.768982,240.957809 
	C755.944031,229.442856 771.916260,230.979416 785.917236,245.089951 
	C790.973999,242.134323 796.084045,239.147537 801.224365,236.143082 
	C796.399780,227.231857 789.700378,221.626892 780.771240,218.629517 
	C768.952271,214.662094 757.190247,215.128998 744.707581,219.198334 
M1096.092285,223.849548 
	C1098.623169,224.532562 1101.154053,225.215576 1104.066772,226.001617 
	C1105.116699,223.885971 1106.168579,221.766342 1107.391846,219.301529 
	C1098.781494,215.922287 1090.758911,214.627243 1082.619263,218.257675 
	C1077.904419,220.360565 1075.496338,224.117432 1075.986572,229.438690 
	C1076.451416,234.482544 1079.615356,237.101364 1084.200806,238.239883 
	C1087.744019,239.119614 1091.439819,239.477905 1094.885498,240.618668 
	C1096.625122,241.194611 1097.960205,242.992294 1099.478149,244.237579 
	C1097.729980,245.467438 1095.942261,247.787003 1094.240967,247.725174 
	C1088.896606,247.530991 1083.584717,246.441025 1077.575073,245.602325 
	C1076.936035,246.860931 1075.857300,248.985214 1074.695801,251.272644 
	C1082.250488,255.560776 1089.724731,256.388336 1097.452393,254.964676 
	C1104.447754,253.675934 1108.625610,249.125275 1108.552612,243.425583 
	C1108.481689,237.894150 1105.093262,234.709183 1097.644165,233.127533 
	C1094.232910,232.403244 1090.782471,231.793503 1087.456543,230.780991 
	C1086.438599,230.471130 1085.046509,228.928528 1085.125122,228.069183 
	C1085.236328,226.851944 1086.347900,225.032547 1087.393677,224.732803 
	C1089.887939,224.017929 1092.594116,224.042465 1096.092285,223.849548 
z"/>
<path fill="#0AFCFB" opacity="1.000000" stroke="none" 
	d="
M193.767212,148.259033 
	C185.952744,144.279266 181.653000,137.601730 179.413177,130.052933 
	C174.217346,112.541557 171.341751,94.733414 175.031525,76.373634 
	C179.185440,55.704350 190.635620,41.605633 213.101166,36.762287 
	C223.920593,34.429722 234.558060,34.049049 244.160995,39.444973 
	C256.612732,46.441647 265.934540,56.334846 266.713043,71.841171 
	C267.056732,78.686295 269.307129,79.799881 275.146698,76.010178 
	C283.130524,70.828934 291.915619,68.284081 301.308685,67.139763 
	C323.943604,64.382248 349.858582,88.847115 347.397614,115.143860 
	C345.200073,138.625671 332.356079,154.723984 311.872620,164.517792 
	C277.439484,180.981384 240.930511,188.773926 202.671219,187.765778 
	C200.700180,187.713837 198.340042,187.736084 196.864975,186.710953 
	C194.072418,184.770233 190.454346,182.482437 189.623703,179.627609 
	C188.489502,175.729446 190.870132,171.374695 194.988342,169.940170 
	C204.364822,166.674011 213.810104,163.180542 223.524567,161.407120 
	C238.870316,158.605667 254.597488,157.853043 269.905945,154.899582 
	C284.105286,152.160095 296.678436,145.032532 307.910828,135.912308 
	C322.821686,123.805336 315.933258,103.465111 305.601562,96.166130 
	C299.869263,92.116447 294.375336,92.627129 288.850952,95.702675 
	C282.469391,99.255417 276.161224,102.999832 270.138885,107.124832 
	C259.304382,114.545944 250.416611,108.593674 247.151596,98.655228 
	C245.447693,93.468643 244.402588,88.053520 243.247360,82.701164 
	C240.349792,69.276115 228.702148,62.218430 215.374908,65.913513 
	C203.145004,69.304344 197.233627,76.070999 197.643967,88.860054 
	C197.993927,99.766853 200.419785,110.591896 201.212936,121.505035 
	C201.727417,128.583694 201.219193,135.776443 200.652161,142.876801 
	C200.376450,146.329071 198.715561,149.445007 193.767212,148.259033 
z"/>
<path fill="#3B3B3B" opacity="1.000000" stroke="none" 
	d="
M298.634705,257.122620 
	C297.008118,240.499039 288.509277,233.487091 273.925079,236.303375 
	C263.519409,238.312744 256.925354,247.215057 256.737946,260.094696 
	C256.544067,273.419220 256.672913,286.748444 256.661041,300.075592 
	C256.659576,301.729523 256.660858,303.383453 256.660858,305.477539 
	C249.943848,305.477539 243.402908,305.477539 236.356186,305.477539 
	C236.281296,303.969940 236.135117,302.370911 236.132980,300.771729 
	C236.115311,287.611115 236.129913,274.450500 236.119431,261.289886 
	C236.117828,259.291901 236.103180,257.289978 235.982422,255.296677 
	C235.304886,244.114410 229.582794,237.223984 220.025330,236.026138 
	C208.117722,234.533737 198.727570,240.175049 195.693970,251.047394 
	C194.679779,254.682220 194.213791,258.574097 194.168152,262.356567 
	C193.995651,276.653900 194.098801,290.954590 194.098801,305.587158 
	C187.302597,305.587158 180.885757,305.587158 174.050629,305.587158 
	C174.050629,276.964600 174.050629,248.269302 174.050629,219.232132 
	C180.231171,219.232132 186.436249,219.232132 192.957214,219.232132 
	C192.957214,222.327423 192.957214,225.274323 192.957214,229.453369 
	C201.834885,221.004517 211.705154,217.562454 222.903900,217.962631 
	C234.130722,218.363815 243.763870,222.017487 250.632004,231.825226 
	C253.079193,229.737045 255.286057,227.512772 257.816162,225.753342 
	C269.529114,217.608170 282.506287,215.920197 295.969574,219.692841 
	C310.395355,223.735229 317.100616,234.434830 318.728088,248.763336 
	C319.065552,251.734619 319.130005,254.748856 319.137268,257.743713 
	C319.175537,273.552795 319.155182,289.362000 319.155182,305.546387 
	C312.293182,305.546387 305.736420,305.546387 298.689575,305.546387 
	C298.689575,289.517853 298.689575,273.559204 298.634705,257.122620 
z"/>
<path fill="#3A3A3A" opacity="1.000000" stroke="none" 
	d="
M661.843994,225.960938 
	C661.843994,212.515488 661.843994,199.070023 661.843994,185.351425 
	C668.391357,185.351425 674.810364,185.351425 681.633911,185.351425 
	C681.633911,225.274841 681.633911,265.284302 681.633911,305.606567 
	C675.421814,305.606567 669.191406,305.606567 662.471924,305.606567 
	C662.471924,302.482880 662.471924,299.408630 662.471924,295.192749 
	C652.973877,304.819092 642.101379,307.752808 630.023010,306.941437 
	C609.021423,305.530609 593.954834,291.945251 590.329163,271.227936 
	C584.559814,238.261734 609.997375,212.466736 642.343079,218.981949 
	C647.973694,220.116104 653.076843,223.858490 658.432800,226.376633 
	C659.442139,226.851166 660.495117,227.232788 661.879211,227.248779 
	C662.101624,226.547134 661.972839,226.254044 661.843994,225.960938 
M610.481506,266.787109 
	C610.610046,267.439850 610.723389,268.096039 610.869385,268.744843 
	C613.904297,282.234833 624.050354,290.162476 637.363892,289.450592 
	C650.736084,288.735535 660.349487,279.570068 661.737610,266.212524 
	C663.255005,251.612167 656.004822,239.786697 643.369873,236.253754 
	C624.521667,230.983459 609.122498,244.843079 610.481506,266.787109 
z"/>
<path fill="#3B3B3B" opacity="1.000000" stroke="none" 
	d="
M412.142944,190.033676 
	C412.240692,210.671188 412.338959,231.308716 412.435272,251.946228 
	C412.442688,253.537430 412.436188,255.128693 412.436188,257.835297 
	C419.747253,251.114655 426.205322,245.202560 432.635498,239.260269 
	C438.993256,233.384888 445.193024,227.328156 451.749664,221.685089 
	C453.546783,220.138367 456.339142,219.156250 458.738892,219.016541 
	C465.021729,218.650757 471.339935,218.893173 478.296753,218.893173 
	C465.846863,230.818634 453.829224,242.330109 441.707062,253.941666 
	C455.955505,272.059631 468.879944,288.493988 482.523590,305.842926 
	C473.896698,305.842926 466.203522,305.986053 458.526581,305.697205 
	C457.295929,305.650909 455.978546,303.802979 454.971313,302.567719 
	C445.933075,291.483215 436.955292,280.349457 427.624329,268.815582 
	C422.724579,273.420441 417.960968,277.723480 413.457062,282.283051 
	C412.598999,283.151733 412.525391,285.030579 412.503723,286.449677 
	C412.407471,292.742645 412.462006,299.037903 412.462006,305.630249 
	C405.612183,305.630249 399.209259,305.630249 392.093018,305.630249 
	C392.093018,266.332184 392.093018,227.111191 392.656982,187.432419 
	C399.527954,186.989883 405.834930,187.005127 412.141907,187.020355 
	C412.218292,187.457230 412.294708,187.894073 412.066071,188.745148 
	C411.888306,189.450821 412.015594,189.742249 412.142944,190.033676 
z"/>
<path fill="#3C3C3C" opacity="1.000000" stroke="none" 
	d="
M536.050781,289.653564 
	C545.587219,289.787811 553.547058,286.949005 560.648193,280.258667 
	C564.301331,284.483307 567.823792,288.556854 571.773865,293.124939 
	C568.807617,295.596588 566.347412,298.069855 563.497131,299.952576 
	C545.721008,311.694183 515.778198,308.893738 500.832703,293.744507 
	C488.155792,280.894836 485.557861,265.125427 490.499908,248.353104 
	C495.349701,231.893707 506.990082,221.999756 523.817200,218.868851 
	C556.161011,212.850861 581.301880,236.504288 576.782654,268.858185 
	C554.415161,268.858185 531.984741,268.858185 509.526398,268.858185 
	C510.428314,280.606628 520.046326,288.143005 536.050781,289.653564 
M520.519226,255.290115 
	C532.801941,255.290115 545.084717,255.290115 557.402649,255.290115 
	C556.354004,243.005035 546.817932,234.672699 533.928406,234.336029 
	C520.994446,233.998184 510.700500,242.490585 509.128967,255.290176 
	C512.633179,255.290176 516.080200,255.290176 520.519226,255.290115 
z"/>
<path fill="#3C3C3C" opacity="1.000000" stroke="none" 
	d="
M1013.008362,267.008392 
	C1008.354004,267.008423 1004.198364,267.008423 999.203125,267.008423 
	C1000.852417,275.293152 1005.134827,281.016235 1012.293396,284.265961 
	C1026.075806,290.522644 1038.838013,288.404602 1050.907471,278.443756 
	C1054.394043,282.401733 1057.962891,286.453125 1062.411499,291.503265 
	C1057.437134,294.800171 1053.155273,298.669403 1048.133667,300.773224 
	C1032.956177,307.131989 1017.496521,306.832520 1002.579224,299.865631 
	C984.681580,291.506866 975.543762,272.194916 979.246643,251.862457 
	C982.905945,231.770111 998.329468,217.790787 1018.696228,216.107025 
	C1047.515869,213.724411 1068.103638,232.900497 1067.604126,261.684937 
	C1067.575684,263.321320 1067.353516,264.954346 1067.187622,267.008362 
	C1049.087524,267.008362 1031.297241,267.008362 1013.008362,267.008392 
M1000.326477,254.263474 
	C1002.536987,254.074951 1004.747559,253.886414 1007.754028,253.386948 
	C1019.142578,253.501877 1030.531128,253.616821 1042.114624,254.122345 
	C1042.385376,253.990082 1042.656128,253.857819 1043.604370,253.388458 
	C1045.010498,253.248718 1046.416626,253.108963 1047.854004,252.966125 
	C1045.593872,240.726959 1037.720947,233.461990 1025.864746,232.323105 
	C1014.673523,231.248093 1004.211304,237.437973 1000.462646,247.627518 
	C999.794861,249.442566 1000.157715,251.636780 1000.326477,254.263474 
z"/>
<path fill="#3C3C3C" opacity="1.000000" stroke="none" 
	d="
M848.120789,215.985138 
	C854.712158,216.528259 860.987732,216.382996 866.898315,217.780914 
	C881.007385,221.117844 890.052124,230.606339 890.765137,244.987091 
	C891.726379,264.375519 891.003662,283.847443 891.003662,303.599182 
	C884.972412,303.599182 878.763000,303.599182 872.059753,303.599182 
	C872.059753,300.725220 872.059753,298.022858 872.059753,294.722351 
	C858.747009,306.738434 844.073730,307.457062 828.805054,301.997528 
	C817.581482,297.984344 811.885681,288.619049 812.475098,277.220795 
	C813.031006,266.470245 819.583130,258.209015 831.044800,255.255692 
	C836.932068,253.738708 843.181885,253.371628 849.296997,253.062759 
	C856.397034,252.704147 863.529114,252.979156 870.587463,252.979156 
	C871.408142,242.828735 866.844604,236.021423 857.711731,233.986115 
	C845.337219,231.228409 833.977112,234.104126 822.944885,241.389587 
	C820.351990,236.641617 817.766052,231.906418 814.951538,226.752686 
	C824.768982,219.443970 835.893921,216.816803 848.120789,215.985138 
M833.425476,273.508972 
	C831.336792,282.459259 834.483826,288.276855 843.506470,289.290253 
	C849.207336,289.930573 855.642883,289.338409 860.918274,287.225281 
	C869.013123,283.982758 873.147705,277.724579 870.277100,266.948395 
	C861.821350,266.948395 853.345825,266.755615 844.885254,267.027466 
	C840.467773,267.169373 836.372314,268.683472 833.425476,273.508972 
z"/>
<path fill="#3B3B3B" opacity="1.000000" stroke="none" 
	d="
M745.079895,219.079529 
	C757.190247,215.128998 768.952271,214.662094 780.771240,218.629517 
	C789.700378,221.626892 796.399780,227.231857 801.224365,236.143082 
	C796.084045,239.147537 790.973999,242.134323 785.917236,245.089951 
	C771.916260,230.979416 755.944031,229.442856 744.768982,240.957809 
	C734.794067,251.236099 735.054321,270.684662 745.298096,280.496338 
	C756.516235,291.241425 772.917114,289.389343 785.874878,275.670685 
	C790.798279,278.536926 795.795471,281.446136 800.743591,284.326782 
	C795.171326,298.541321 777.415833,306.837067 757.633911,304.751099 
	C736.242798,302.495453 720.856812,288.373749 717.412598,267.834839 
	C713.859863,246.648880 723.934143,228.697754 745.079895,219.079529 
z"/>
<path fill="#3E3E3E" opacity="1.000000" stroke="none" 
	d="
M918.977661,217.099152 
	C924.763733,217.099152 930.549866,217.099152 936.762573,217.099152 
	C936.762573,220.674805 936.762573,224.085068 936.762573,228.962982 
	C945.313354,218.729340 955.666565,215.905243 967.539185,215.960342 
	C967.539185,222.388077 967.539185,228.601013 967.539185,234.793549 
	C967.143555,234.942688 966.842224,235.161484 966.548096,235.152176 
	C946.913513,234.531601 938.004517,243.087616 937.901245,262.817963 
	C937.830811,276.276154 937.887756,289.735016 937.887756,303.874390 
	C931.355530,303.874390 925.098938,303.921234 918.846619,303.780518 
	C918.375000,303.769897 917.933533,302.423798 917.902710,301.185669 
	C918.145325,299.419739 917.963379,298.166687 917.781433,296.913605 
	C917.668457,285.929413 917.491028,274.945374 917.458374,263.960938 
	C917.413818,248.962601 917.479553,233.963943 917.885132,218.415009 
	C918.507385,217.609451 918.742493,217.354309 918.977661,217.099152 
z"/>
<path fill="#3A3A3A" opacity="1.000000" stroke="none" 
	d="
M364.969147,304.992737 
	C358.541565,305.427551 352.114014,305.862366 345.339874,306.320618 
	C345.339874,276.856323 345.339874,248.219238 345.339874,218.960480 
	C350.954132,218.960480 356.530518,218.960480 362.627563,219.386200 
	C363.803864,220.213425 364.459564,220.614944 365.115234,221.016464 
	C365.194916,221.761398 365.274628,222.506348 365.051880,223.709106 
	C364.872345,224.454041 364.995239,224.741150 365.118134,225.028259 
	C365.214508,242.089218 365.332611,259.150085 365.398376,276.211151 
	C365.432892,285.161316 365.375793,294.111786 365.059021,303.596527 
	C364.668732,304.225128 364.487823,304.377686 364.504730,304.404297 
	C364.638214,304.614014 364.809509,304.799683 364.969147,304.992737 
z"/>
<path fill="#404040" opacity="1.000000" stroke="none" 
	d="
M1095.653564,223.808960 
	C1092.594116,224.042465 1089.887939,224.017929 1087.393677,224.732803 
	C1086.347900,225.032547 1085.236328,226.851944 1085.125122,228.069183 
	C1085.046509,228.928528 1086.438599,230.471130 1087.456543,230.780991 
	C1090.782471,231.793503 1094.232910,232.403244 1097.644165,233.127533 
	C1105.093262,234.709183 1108.481689,237.894150 1108.552612,243.425583 
	C1108.625610,249.125275 1104.447754,253.675934 1097.452393,254.964676 
	C1089.724731,256.388336 1082.250488,255.560776 1074.695801,251.272644 
	C1075.857300,248.985214 1076.936035,246.860931 1077.575073,245.602325 
	C1083.584717,246.441025 1088.896606,247.530991 1094.240967,247.725174 
	C1095.942261,247.787003 1097.729980,245.467438 1099.478149,244.237579 
	C1097.960205,242.992294 1096.625122,241.194611 1094.885498,240.618668 
	C1091.439819,239.477905 1087.744019,239.119614 1084.200806,238.239883 
	C1079.615356,237.101364 1076.451416,234.482544 1075.986572,229.438690 
	C1075.496338,224.117432 1077.904419,220.360565 1082.619263,218.257675 
	C1090.758911,214.627243 1098.781494,215.922287 1107.391846,219.301529 
	C1106.168579,221.766342 1105.116699,223.885971 1104.066772,226.001617 
	C1101.154053,225.215576 1098.623169,224.532562 1095.653564,223.808960 
z"/>
<path fill="#2B2B2B" opacity="1.000000" stroke="none" 
	d="
M412.162720,186.558701 
	C405.834930,187.005127 399.527954,186.989883 392.773926,186.975586 
	C392.502594,186.417999 392.692261,185.367371 392.852112,185.371887 
	C399.297607,185.554108 405.740417,185.831696 412.162720,186.558701 
z"/>
<path fill="#292929" opacity="1.000000" stroke="none" 
	d="
M917.675659,297.242004 
	C917.963379,298.166687 918.145325,299.419739 918.048340,300.805542 
	C917.702881,299.815674 917.636414,298.693054 917.675659,297.242004 
z"/>
<path fill="#292929" opacity="1.000000" stroke="none" 
	d="
M365.199402,220.638062 
	C364.459564,220.614944 363.803864,220.213425 363.084351,219.502563 
	C363.774841,219.548706 364.529205,219.904190 365.199402,220.638062 
z"/>
<path fill="#292929" opacity="1.000000" stroke="none" 
	d="
M365.119751,304.753296 
	C364.809509,304.799683 364.638214,304.614014 364.504730,304.404297 
	C364.487823,304.377686 364.668732,304.225128 364.937866,304.049988 
	C365.168640,304.150635 365.219482,304.332214 365.119751,304.753296 
z"/>
<path fill="#292929" opacity="1.000000" stroke="none" 
	d="
M661.744751,226.232056 
	C661.972839,226.254044 662.101624,226.547134 662.044189,226.940201 
	C661.787048,226.861160 661.716248,226.682175 661.744751,226.232056 
z"/>
<path fill="#292929" opacity="1.000000" stroke="none" 
	d="
M365.204376,224.763031 
	C364.995239,224.741150 364.872345,224.454041 364.929535,224.068573 
	C365.169983,224.146072 365.230316,224.321945 365.204376,224.763031 
z"/>
<path fill="#292929" opacity="1.000000" stroke="none" 
	d="
M918.647461,217.071716 
	C918.742493,217.354309 918.507385,217.609451 918.028076,217.969330 
	C917.961731,217.730804 918.139526,217.387543 918.647461,217.071716 
z"/>
<path fill="#2B2B2B" opacity="1.000000" stroke="none" 
	d="
M412.230927,189.765579 
	C412.015594,189.742249 411.888306,189.450821 411.948120,189.061615 
	C412.196472,189.141724 412.257690,189.319595 412.230927,189.765579 
z"/>
<path fill="#FCFCFC" opacity="1.000000" stroke="none" 
	d="
M610.437988,266.359772 
	C609.122498,244.843079 624.521667,230.983459 643.369873,236.253754 
	C656.004822,239.786697 663.255005,251.612167 661.737610,266.212524 
	C660.349487,279.570068 650.736084,288.735535 637.363892,289.450592 
	C624.050354,290.162476 613.904297,282.234833 610.869385,268.744843 
	C610.723389,268.096039 610.610046,267.439850 610.437988,266.359772 
z"/>
<path fill="#FBFBFB" opacity="1.000000" stroke="none" 
	d="
M520.023193,255.290146 
	C516.080200,255.290176 512.633179,255.290176 509.128967,255.290176 
	C510.700500,242.490585 520.994446,233.998184 533.928406,234.336029 
	C546.817932,234.672699 556.354004,243.005035 557.402649,255.290115 
	C545.084717,255.290115 532.801941,255.290115 520.023193,255.290146 
z"/>
<path fill="#FBFBFB" opacity="1.000000" stroke="none" 
	d="
M1041.919678,253.731750 
	C1030.531128,253.616821 1019.142578,253.501877 1006.937988,253.418594 
	C1004.096130,253.518799 1002.070374,253.587341 1000.044678,253.655914 
	C1000.157715,251.636780 999.794861,249.442566 1000.462646,247.627518 
	C1004.211304,237.437973 1014.673523,231.248093 1025.864746,232.323105 
	C1037.720947,233.461990 1045.593872,240.726959 1047.854004,252.966125 
	C1046.416626,253.108963 1045.010498,253.248718 1043.013184,253.461182 
	C1042.254639,253.599854 1042.087158,253.665802 1041.919678,253.731750 
z"/>
<path fill="#2A2A2A" opacity="1.000000" stroke="none" 
	d="
M1000.185547,253.959686 
	C1002.070374,253.587341 1004.096130,253.518799 1006.539978,253.574066 
	C1004.747559,253.886414 1002.536987,254.074951 1000.185547,253.959686 
z"/>
<path fill="#2A2A2A" opacity="1.000000" stroke="none" 
	d="
M1042.017090,253.927048 
	C1042.087158,253.665802 1042.254639,253.599854 1042.674561,253.629730 
	C1042.656128,253.857819 1042.385376,253.990082 1042.017090,253.927048 
z"/>
<path fill="#FAFAFA" opacity="1.000000" stroke="none" 
	d="
M833.643555,273.166290 
	C836.372314,268.683472 840.467773,267.169373 844.885254,267.027466 
	C853.345825,266.755615 861.821350,266.948395 870.277100,266.948395 
	C873.147705,277.724579 869.013123,283.982758 860.918274,287.225281 
	C855.642883,289.338409 849.207336,289.930573 843.506470,289.290253 
	C834.483826,288.276855 831.336792,282.459259 833.643555,273.166290 
z"/>
</svg>